<?xml version="1.0" standalone="no"?><!DOCTYPE svg PUBLIC "-//W3C//DTD SVG 1.1//EN" "http://www.w3.org/Graphics/SVG/1.1/DTD/svg11.dtd"><svg t="1766478744586" class="icon" viewBox="0 0 1024 1024" version="1.1" xmlns="http://www.w3.org/2000/svg" p-id="7111" xmlns:xlink="http://www.w3.org/1999/xlink" width="256" height="256"><path d="M958.158503 882.228465h-216.164395a35.425171 35.425171 0 0 0-25.647824 11.265204 40.313845 40.313845 0 0 0 0 54.625614 35.425171 35.425171 0 0 0 25.647824 11.336055h216.164395a35.850273 35.850273 0 0 0 32.095205-19.058742 40.951498 40.951498 0 0 0 0-38.967689 35.991974 35.991974 0 0 0-32.095205-19.200442z m-314.150418 0H643.724683a35.425171 35.425171 0 0 0-25.647824 11.265204 40.313845 40.313845 0 0 0 0 54.625614 35.425171 35.425171 0 0 0 25.647824 11.336055h0.354252a35.425171 35.425171 0 0 0 25.718674-11.336055 39.747042 39.747042 0 0 0 10.627552-27.277382 37.904933 37.904933 0 0 0-36.346226-38.613436z m0-340.081644H643.724683a35.425171 35.425171 0 0 0-25.647824 11.336055 39.32194 39.32194 0 0 0-10.698401 27.277381 39.817892 39.817892 0 0 0 10.698401 27.277382 35.425171 35.425171 0 0 0 25.647824 11.336055h0.354252a35.425171 35.425171 0 0 0 25.718674-11.336055 39.605341 39.605341 0 0 0 10.627552-27.277382 37.904933 37.904933 0 0 0-36.346226-38.471736z m314.150418 0h-216.164395a35.425171 35.425171 0 0 0-25.647824 11.336055 39.32194 39.32194 0 0 0-10.698401 27.277381 39.817892 39.817892 0 0 0 10.698401 27.277382 35.425171 35.425171 0 0 0 25.647824 11.336055h216.164395a35.850273 35.850273 0 0 0 32.095205-19.058742 40.951498 40.951498 0 0 0 0-38.967688 35.425171 35.425171 0 0 0-32.095205-19.058743z m-314.150418 170.040822H643.724683a35.425171 35.425171 0 0 0-25.647824 11.336055 39.463641 39.463641 0 0 0-10.698401 27.277381 40.030444 40.030444 0 0 0 10.698401 27.348233 35.425171 35.425171 0 0 0 25.647824 11.265204h0.354252a35.850273 35.850273 0 0 0 25.718674-11.265204 39.888743 39.888743 0 0 0 10.627552-27.348233 38.188335 38.188335 0 0 0-36.346226-38.825987z m314.150418 0h-216.164395a35.425171 35.425171 0 0 0-25.647824 11.336055 39.463641 39.463641 0 0 0-10.698401 27.277381 40.030444 40.030444 0 0 0 10.698401 27.348233 35.425171 35.425171 0 0 0 25.647824 11.265204h216.164395a38.684287 38.684287 0 0 0 0-77.226873zM635.576894 252.29807a490.851173 490.851173 0 0 0 104.008303 110.313983 86.720819 86.720819 0 0 0 52.216702-57.530478 474.697295 474.697295 0 0 0-104.645956-110.668235 96.852418 96.852418 0 0 0-51.579049 57.88473z m103.016398 166.498304a44.635716 44.635716 0 0 1-25.010171-7.580986 565.031481 565.031481 0 0 1-123.492147-131.214834v-0.779354l-0.354252-0.708504a48.178233 48.178233 0 0 1-6.022279-22.317858 31.953504 31.953504 0 0 1 1.558708-8.43119c0.354252-0.779354 0.354252-1.771259 0.779353-1.98381v-1.629558l0.779354-1.983809a152.044835 152.044835 0 0 1 92.105445-97.702623 24.443368 24.443368 0 0 1 9.777348-1.700408 43.927212 43.927212 0 0 1 25.010171 7.651837 564.322978 564.322978 0 0 1 123.067045 130.29378 26.99398 26.99398 0 0 1 7.085034 26.639729 40.597246 40.597246 0 0 1-1.629558 6.376531c-0.354252 0.779354-0.354252 1.771259-0.779354 1.983809v1.700408l-0.779354 1.98381a151.761434 151.761434 0 0 1-92.105445 97.702622 28.340137 28.340137 0 0 1-9.989898 1.700408z" p-id="7112" fill="#77869E"></path><path d="M689.777406 0a310.678752 310.678752 0 0 0-300.192901 319.180793 321.377154 321.377154 0 0 0 20.75915 115.982011L44.968439 823.493531A50.091192 50.091192 0 0 0 28.74371 862.957172v96.569016a63.765308 63.765308 0 0 0 60.577043 64.402962h90.830139a52.075002 52.075002 0 0 0 37.054729-17.287484l43.927213-47.115478h69.716737a63.765308 63.765308 0 0 0 60.577043-64.402961v-64.332111h60.577043a63.765308 63.765308 0 0 0 60.577042-64.402961V692.349547l33.653913-35.425171V562.76427l-80.415139 85.020411a63.765308 63.765308 0 0 0-18.63364 44.706566v74.109459h-60.577043a63.765308 63.765308 0 0 0-60.577042 64.332111v64.402961h-69.291635a56.680274 56.680274 0 0 0-42.085104 19.767246l-41.660001 44.706566H86.840991V868.625199l395.699163-420.425932a265.688784 265.688784 0 0 1-34.858368-129.018474A247.267695 247.267695 0 0 1 687.297644 64.544662a246.913444 246.913444 0 0 1 239.545008 254.636131 267.601744 267.601744 0 0 1-31.882654 131.994188h72.338199a332.99661 332.99661 0 0 0 26.85228-131.994188A316.984432 316.984432 0 0 0 689.777406 0z" p-id="7113" fill="#77869E"></path></svg>