<?xml version="1.0" standalone="no"?><!DOCTYPE svg PUBLIC "-//W3C//DTD SVG 1.1//EN" "http://www.w3.org/Graphics/SVG/1.1/DTD/svg11.dtd"><svg t="1763006152686" class="icon" viewBox="0 0 1024 1024" version="1.1" xmlns="http://www.w3.org/2000/svg" p-id="5511" xmlns:xlink="http://www.w3.org/1999/xlink" width="256" height="256"><path d="M800 64a160 160 0 1 1-159.744 169.6H302.528c-74.176 0-132.928 53.888-132.928 118.4s58.752 118.4 132.928 118.4h418.944c118.592 0 216.128 89.408 216.128 201.6s-97.536 201.6-216.128 201.6H366.08a160 160 0 1 1 17.664-83.2h337.728c74.176 0 132.928-53.888 132.928-118.4s-58.752-118.4-132.928-118.4H302.528C183.936 553.6 86.4 464.192 86.4 352s97.536-201.6 216.128-201.6h355.392A160 160 0 0 1 800 64z m-576 659.2a76.8 76.8 0 1 0 0 153.6 76.8 76.8 0 0 0 0-153.6z m576-576a76.8 76.8 0 1 0 0 153.6 76.8 76.8 0 0 0 0-153.6z" p-id="5512" fill="#FFF"></path></svg>