<?xml version="1.0" standalone="no"?><!DOCTYPE svg PUBLIC "-//W3C//DTD SVG 1.1//EN" "http://www.w3.org/Graphics/SVG/1.1/DTD/svg11.dtd"><svg t="1762331066176" class="icon" viewBox="0 0 1024 1024" version="1.1" xmlns="http://www.w3.org/2000/svg" p-id="1977" xmlns:xlink="http://www.w3.org/1999/xlink" width="256" height="256"><path d="M405.888 750.592a32.448 32.448 0 0 1-14.08 8.256L156.8 826.432a16.256 16.256 0 0 1-20.096-20.032l67.648-235.264a32.384 32.384 0 0 1 8.256-13.952l478.912-478.784a32.384 32.384 0 0 1 45.696 0l147.52 147.456a32.512 32.512 0 0 1 0 45.824l-478.784 478.912z m251.2-523.328l78.72 78.784 57.28-57.344-78.784-78.72-57.216 57.28z m-51.584 51.52L278.72 605.76l-31.808 110.464 110.528-31.744 326.784-326.784-78.72-78.784v-0.128zM194.752 72.192c-3.84-10.88-9.856-10.88-13.568 0l-20.992 61.824a48.256 48.256 0 0 1-26.624 26.688l-61.376 20.864c-10.88 3.648-11.008 9.856 0 13.568l60.928 21.376a48.96 48.96 0 0 1 26.688 26.752l21.312 61.76c3.648 10.944 9.856 10.88 13.44 0l20.736-61.568a48.32 48.32 0 0 1 26.752-26.688l62.208-21.44c11.008-3.648 11.008-9.856 0-13.44l-61.312-20.736a48.512 48.512 0 0 1-26.816-26.624l-21.376-62.272z m601.472 548.992c-5.184-15.104-13.696-15.104-18.88 0l-29.184 85.76a67.328 67.328 0 0 1-37.12 36.992l-85.312 28.928c-15.104 5.184-15.232 13.632 0 18.944l84.8 29.44c15.168 5.312 31.872 22.016 37.12 37.12l29.504 85.76c5.312 15.168 13.76 15.168 18.88 0l28.928-85.44c5.184-15.168 21.76-31.872 36.992-37.12l86.656-29.504c15.232-5.184 15.232-13.632 0-18.816l-85.312-28.8a67.328 67.328 0 0 1-37.184-36.8l-29.824-86.4-0.064-0.064z" p-id="1978" fill="#FFF"></path></svg>